<svg width="74" height="70" xmlns="http://www.w3.org/2000/svg">
 <defs>
  <style>.cls-1{fill:none;}.cls-2{fill:lightgray}</style>
 </defs>
 <title>ic</title>
 <g>
  <title>Layer 1</title>
  <path id="svg_1" d="m20.85391,4.16953l9,5.42a4,4 0 0 0 2.07,0.58l35.88,0a1.5,1.5 0 0 1 1.5,1.5l0,53a1.5,1.5 0 0 1 -1.5,1.5l-62,0a1.5,1.5 0 0 1 -1.5,-1.5l0,-59a1.5,1.5 0 0 1 1.5,-1.5l15,0m1.12,-4l-16.12,0a5.5,5.5 0 0 0 -5.5,5.5l0,59a5.5,5.5 0 0 0 5.5,5.5l62,0a5.5,5.5 0 0 0 5.5,-5.5l0,-53a5.5,5.5 0 0 0 -5.5,-5.5l-35.92,0l-9.92,-6l-0.04,0z" class="cls-2"/>
  <rect id="svg_2" height="4" width="72.92" y="20.16953" x="0.34391" class="cls-2"/>
  <path id="svg_3" d="m36.80391,56.62953a2,2 0 0 1 -2,-2l0,-18a2,2 0 1 1 4,0l0,18a2,2 0 0 1 -2,2z" class="cls-2"/>
  <path id="svg_4" d="m29.73391,44.77953a2,2 0 0 1 -1.41,-3.41l7.07,-7.07a2,2 0 0 1 2.82,2.87l-7.07,7a2,2 0 0 1 -1.41,0.61z" class="cls-2"/>
  <path id="svg_5" d="m43.87391,44.77953a2,2 0 0 1 -1.41,-0.61l-7.07,-7a2,2 0 1 1 2.83,-2.83l7.07,7.07a2,2 0 0 1 -1.41,3.41l-0.01,-0.04z" class="cls-2"/>
  <rect id="svg_6" height="42.17" width="64.12" y="24.08953" x="4.74391" class="cls-1"/>
 </g>
</svg>